<svg width="31" height="31" viewBox="0 0 31 31" fill="none" xmlns="http://www.w3.org/2000/svg">
<circle cx="15.5" cy="15.5" r="15.5" fill="#333333"/>
<path d="M16.933 15.5L19.6983 12.75C20.1006 12.35 20.1006 11.75 19.6983 11.35C19.5475 11.15 19.2961 11 19.0447 11C18.7933 11 18.5419 11.1 18.3408 11.3L15.5251 14.1L12.7598 11.35C12.3575 10.95 11.7039 10.95 11.352 11.35C11.1508 11.5 11 11.75 11 12.05C11 12.35 11.1006 12.55 11.3017 12.75L14.067 15.5L11.3017 18.25C11.1508 18.45 11 18.7 11 19C11 19.25 11.1006 19.5 11.3017 19.7C11.5028 19.9 11.7542 20 12.0056 20C12.257 20 12.5084 19.9 12.7095 19.7L15.4749 16.95L18.2402 19.7C18.6425 20.1 19.2961 20.1 19.648 19.7C20.0503 19.3 20.0503 18.65 19.648 18.3L16.933 15.5Z" fill="white"/>
</svg>
