<svg width="20" height="20" viewBox="0 0 20 20" fill="none" xmlns="http://www.w3.org/2000/svg">
<path fill-rule="evenodd" clip-rule="evenodd" d="M1.04163 6.66669C1.04163 3.56009 3.56003 1.04169 6.66663 1.04169H13.3333C16.4399 1.04169 18.9583 3.56009 18.9583 6.66669V13.3334C18.9583 16.4399 16.4399 18.9584 13.3333 18.9584H6.66663C3.56003 18.9584 1.04163 16.4399 1.04163 13.3334V6.66669ZM6.66663 2.29169C4.25038 2.29169 2.29163 4.25044 2.29163 6.66669V13.3334C2.29163 15.7496 4.25038 17.7084 6.66663 17.7084H13.3333C15.7495 17.7084 17.7083 15.7496 17.7083 13.3334V6.66669C17.7083 4.25044 15.7495 2.29169 13.3333 2.29169H6.66663Z" fill="#FF4747"/>
<path fill-rule="evenodd" clip-rule="evenodd" d="M7.05806 7.05806C7.30214 6.81398 7.69786 6.81398 7.94194 7.05806L12.9419 12.0581C13.186 12.3022 13.186 12.6978 12.9419 12.9419C12.6978 13.186 12.3021 13.186 12.058 12.9419L7.05806 7.94194C6.81398 7.69786 6.81398 7.30213 7.05806 7.05806Z" fill="#FF4747"/>
<path fill-rule="evenodd" clip-rule="evenodd" d="M12.9419 7.05806C13.186 7.30214 13.186 7.69786 12.9419 7.94194L7.94194 12.9419C7.69786 13.186 7.30213 13.186 7.05806 12.9419C6.81398 12.6978 6.81398 12.3021 7.05806 12.058L12.0581 7.05806C12.3022 6.81398 12.6978 6.81398 12.9419 7.05806Z" fill="#FF4747"/>
</svg>
