<svg width="22" height="22" viewBox="0 0 22 22" fill="none" xmlns="http://www.w3.org/2000/svg">
<path d="M5.616 20C5.17133 20 4.791 19.8417 4.475 19.525C4.159 19.2083 4.00067 18.8287 4 18.386V9.616C4 9.172 4.15833 8.792 4.475 8.476C4.79167 8.16 5.17167 8.00133 5.615 8H7V6C7 4.886 7.38833 3.941 8.165 3.165C8.941 2.38833 9.886 2 11 2C12.114 2 13.0593 2.38833 13.836 3.165C14.6127 3.94167 15.0007 4.88667 15 6V8H16.385C16.829 8 17.209 8.15833 17.525 8.475C17.841 8.79167 17.9993 9.17167 18 9.615V18.385C18 18.829 17.8417 19.209 17.525 19.525C17.2083 19.841 16.8283 19.9993 16.385 20H5.616ZM11 15.5C11.422 15.5 11.7773 15.3553 12.066 15.066C12.3553 14.7773 12.5 14.422 12.5 14C12.5 13.578 12.3553 13.2227 12.066 12.934C11.7767 12.6453 11.4213 12.5007 11 12.5C10.5787 12.4993 10.2233 12.644 9.934 12.934C9.64467 13.2227 9.5 13.578 9.5 14C9.5 14.422 9.64467 14.7773 9.934 15.066C10.2227 15.3553 10.578 15.5 11 15.5ZM8 8H14V6C14 5.16667 13.7083 4.45833 13.125 3.875C12.5417 3.29167 11.8333 3 11 3C10.1667 3 9.45833 3.29167 8.875 3.875C8.29167 4.45833 8 5.16667 8 6V8Z" fill="#757575"/>
</svg>
