<svg width="22" height="21" viewBox="0 0 22 21" fill="none" xmlns="http://www.w3.org/2000/svg">
<path d="M5.82783 1.97398C5.46828 1.63077 4.89859 1.64402 4.55538 2.00357C4.21218 2.36312 4.22542 2.93281 4.58497 3.27602L5.82783 1.97398ZM19.2516 17.276C19.6112 17.6192 20.1809 17.606 20.5241 17.2464C20.8673 16.8869 20.854 16.3172 20.4945 15.974L19.2516 17.276ZM1.22375 12.0858L1.99498 11.6219L1.99498 11.6219L1.22375 12.0858ZM1.22374 9.88784L0.452498 9.42396L0.452498 9.42396L1.22374 9.88784ZM20.1892 9.88777L19.418 10.3517L19.418 10.3517L20.1892 9.88777ZM19.548 11.3254C19.4093 11.8027 19.6839 12.3021 20.1612 12.4407C20.6386 12.5794 21.1379 12.3048 21.2765 11.8275L19.548 11.3254ZM14.0314 3.62192C13.5593 3.4665 13.0506 3.72325 12.8951 4.19538C12.7397 4.66751 12.9965 5.17624 13.4686 5.33166L14.0314 3.62192ZM18.6192 15.5206C18.9757 15.1743 18.9841 14.6045 18.6378 14.2479C18.2915 13.8913 17.7217 13.883 17.3651 14.2293L18.6192 15.5206ZM7.49721 5.49188C7.96065 5.31219 8.19067 4.79083 8.01098 4.32739C7.83129 3.86395 7.30993 3.63393 6.84649 3.81362L7.49721 5.49188ZM4.58497 3.27602L19.2516 17.276L20.4945 15.974L5.82783 1.97398L4.58497 3.27602ZM10.7065 17.0868C7.20728 17.0868 4.0248 14.9966 1.99498 11.6219L0.452507 12.5497C2.73102 16.3379 6.43967 18.8868 10.7065 18.8868V17.0868ZM0.452498 9.42396C-0.128587 10.3901 -0.128583 11.5836 0.452507 12.5497L1.99498 11.6219C1.75726 11.2267 1.75725 10.747 1.99498 10.3517L0.452498 9.42396ZM19.418 10.3517C19.6 10.6543 19.6414 11.0039 19.548 11.3254L21.2765 11.8275C21.5093 11.026 21.402 10.1579 20.9605 9.42388L19.418 10.3517ZM13.4686 5.33166C15.843 6.11327 17.9395 7.89357 19.418 10.3517L20.9605 9.42388C19.2982 6.66027 16.8813 4.56007 14.0314 3.62192L13.4686 5.33166ZM17.3651 14.2293C15.5014 16.0393 13.1893 17.0868 10.7065 17.0868V18.8868C13.7211 18.8868 16.468 17.6097 18.6192 15.5206L17.3651 14.2293ZM1.99498 10.3517C3.3797 8.04951 5.30753 6.34088 7.49721 5.49188L6.84649 3.81362C4.22887 4.82855 2.00996 6.83456 0.452498 9.42396L1.99498 10.3517ZM12.5031 10.5762C12.5965 10.9306 12.5669 11.3045 12.4167 11.6439L14.0628 12.3721C14.3773 11.6612 14.4416 10.869 14.2438 10.1178L12.5031 10.5762ZM12.4167 11.6439C12.2662 11.9841 12 12.2766 11.6499 12.4703L12.5215 14.0452C13.2047 13.6671 13.7487 13.0823 14.0628 12.3721L12.4167 11.6439ZM11.6499 12.4703C11.2994 12.6643 10.888 12.746 10.4794 12.6988L10.2729 14.4869C11.05 14.5766 11.8388 14.423 12.5215 14.0452L11.6499 12.4703ZM10.4794 12.6988C10.0709 12.6516 9.69562 12.4793 9.40839 12.2155L8.19072 13.5411C8.76411 14.0678 9.49565 14.3972 10.2729 14.4869L10.4794 12.6988ZM9.40839 12.2155C9.12182 11.9523 8.93904 11.6133 8.87859 11.253L7.1034 11.5508C7.23182 12.3163 7.61668 13.0138 8.19072 13.5411L9.40839 12.2155ZM8.87859 11.253C8.81822 10.8931 8.88148 10.5224 9.06313 10.195L7.48913 9.32177C7.11182 10.0019 6.97492 10.785 7.1034 11.5508L8.87859 11.253ZM9.06313 10.195C9.24524 9.86673 9.53906 9.59591 9.9074 9.43126L9.17281 7.78798C8.4595 8.10684 7.86597 8.6425 7.48913 9.32177L9.06313 10.195ZM9.9074 9.43126C10.2762 9.2664 10.6942 9.21971 11.0962 9.30064L11.4514 7.53603C10.6848 7.38172 9.88566 7.46931 9.17281 7.78798L9.9074 9.43126Z" fill="#757575"/>
</svg>
