<svg width="22" height="21" viewBox="0 0 22 21" fill="none" xmlns="http://www.w3.org/2000/svg">
<path d="M1.22375 11.5991C0.814337 10.9184 0.814334 10.0817 1.22374 9.40106C3.3779 5.8196 6.82349 3.5 10.7065 3.5C14.5895 3.5 18.035 5.81957 20.1892 9.40099C20.5986 10.0817 20.5986 10.9183 20.1892 11.599C18.0351 15.1804 14.5895 17.5 10.7065 17.5C6.82348 17.5 3.37791 15.1805 1.22375 11.5991Z" stroke="#757575" stroke-width="1.8"/>
<path d="M13.4564 10.5C13.4564 11.9497 12.2252 13.125 10.7064 13.125C9.18762 13.125 7.9564 11.9497 7.9564 10.5C7.9564 9.05025 9.18762 7.875 10.7064 7.875C12.2252 7.875 13.4564 9.05025 13.4564 10.5Z" stroke="#757575" stroke-width="1.8"/>
</svg>
